HIERARCHY
ROOT Hips
{
  OFFSET -102.467 93.6631 130.069
  CHANNELS 6 Xposition Yposition Zposition Zrotation Xrotation Yrotation
  JOINT LeftUpLeg
  {
    OFFSET 8.64259 1.95398 -2.38835
    CHANNELS 3 Zrotation Xrotation Yrotation
    JOINT LeftLeg
    {
      OFFSET 43.7702 0 0
      CHANNELS 3 Zrotation Xrotation Yrotation
      JOINT LeftFoot
      {
        OFFSET 40.6238 0 0
        CHANNELS 3 Zrotation Xrotation Yrotation
        JOINT LeftToeBase
        {
          OFFSET 12.7242 0 0
          CHANNELS 3 Zrotation Xrotation Yrotation
          End Site
          {
            OFFSET 0 0 0
          }
        }
      }
    }
  }
  JOINT RightUpLeg
  {
    OFFSET -8.2249 1.95398 -2.59336
    CHANNELS 3 Zrotation Xrotation Yrotation
    JOINT RightLeg
    {
      OFFSET 43.5653 0 0
      CHANNELS 3 Zrotation Xrotation Yrotation
      JOINT RightFoot
      {
        OFFSET 40.6238 0 0
        CHANNELS 3 Zrotation Xrotation Yrotation
        JOINT RightToeBase
        {
          OFFSET 12.7242 0 0
          CHANNELS 3 Zrotation Xrotation Yrotation
          End Site
          {
            OFFSET 0 0 0
          }
        }
      }
    }
  }
  JOINT Spine
  {
    OFFSET 0.165834 0.87714 6.61349
    CHANNELS 3 Zrotation Xrotation Yrotation
    JOINT Spine1
    {
      OFFSET 7.38963 1.71661e-005 0
      CHANNELS 3 Zrotation Xrotation Yrotation
      JOINT Spine2
      {
        OFFSET 11.9445 1.14441e-005 0
        CHANNELS 3 Zrotation Xrotation Yrotation
        JOINT Spine3
        {
          OFFSET 14.7254 4.19617e-005 0
          CHANNELS 3 Zrotation Xrotation Yrotation
          JOINT Spine4
          {
            OFFSET 10.9679 0 0
            CHANNELS 3 Zrotation Xrotation Yrotation
            JOINT RightShoulder
            {
              OFFSET 2.46616 -1.6653 3.69651
              CHANNELS 3 Zrotation Xrotation Yrotation
              JOINT RightArm
              {
                OFFSET 13.0012 0 0
                CHANNELS 3 Zrotation Xrotation Yrotation
                JOINT RightForeArm
                {
                  OFFSET 28.7848 1.52588e-005 0
                  CHANNELS 3 Zrotation Xrotation Yrotation
                  JOINT RightHand
                  {
                    OFFSET 26.5688 1.52588e-005 0
                    CHANNELS 3 Zrotation Xrotation Yrotation
                    End Site
                    {
                      OFFSET 0 0 0
                    }
                  }
                }
              }
            }
            JOINT LeftShoulder
            {
              OFFSET 2.38034 -1.29275 -3.7523
              CHANNELS 3 Zrotation Xrotation Yrotation
              JOINT LeftArm
              {
                OFFSET 16.3182 6.10351e-005 0
                CHANNELS 3 Zrotation Xrotation Yrotation
                JOINT LeftForeArm
                {
                  OFFSET 27.0901 0 0
                  CHANNELS 3 Zrotation Xrotation Yrotation
                  JOINT LeftHand
                  {
                    OFFSET 24.5451 1.52588e-005 0
                    CHANNELS 3 Zrotation Xrotation Yrotation
                    End Site
                    {
                      OFFSET 0 0 0
                    }
                  }
                }
              }
            }
            JOINT Neck
            {
              OFFSET 5.0226 -0.0266342 0
              CHANNELS 3 Zrotation Xrotation Yrotation
              JOINT Head
              {
                OFFSET 6.69363 2.86102e-005 0
                CHANNELS 3 Zrotation Xrotation Yrotation
                End Site
                {
                  OFFSET 0 0 0
                }
              }
            }
          }
        }
      }
    }
  }
}
MOTION
Frames:	9
Frame Time:	0.0416667
-240.503 92.8352 243.575 96.3103 42.1597 100.723 -166.199 18.2498 106.723 -37.217 28.3573 -1.30381 69.1033 9.29617 13.8179 37.7463 -1.00263 0.284864 -179.611 15.8484 106.067 -54.0546 -5.48907 -0.303468 46.381 9.77139 18.2731 21.3072 2.73349 10.7617 0.894212 7.32146 -91.561 12.2356 1.03783 -3.23185 0.560974 0.894661 -3.27434 -21.9523 1.9608 -2.7711 -1.93967 1.9608 -2.77111 101.024 -53.4742 -83.8772 30.3585 -28.6929 5.74799 1.52388 11.6291 -78.4401 -2.86917 -0.0983109 -1.48608 -85.3239 -51.5533 85.7179 -24.8706 21.7275 -1.76636 -12.4776 -11.6217 -63.5616 -5.92918 0.220831 -14.3727 5.86386 0.850222 -5.37535 -21.0971 0.164153 11.3112 
-234.694 93.6165 237.737 97.6958 39.0237 98.63 -161.689 8.28065 107.405 -29.5 27.8777 -3.67841 69.5298 10.1174 15.1021 40.7644 -1.40472 -0.0199645 -177.743 20.6109 105.417 -39.9927 -3.91689 -0.170972 50.1195 7.59294 14.6126 30.9733 1.30069 10.1035 1.06712 7.35925 -91.4585 12.1664 1.43117 -3.06906 0.49248 1.29476 -3.129 -22.0282 2.28712 -2.49755 -2.01553 2.2871 -2.49756 103.086 -53.4877 -80.793 29.8664 -29.8538 5.13535 0.936361 11.8922 -78.6894 -2.49037 -0.0946521 -1.04696 -84.9693 -50.9712 86.1724 -23.5422 24.3788 -4.46942 -14.245 -12.846 -62.2576 -4.23029 0.0790937 -14.5404 5.56328 1.24891 -6.63969 -22.364 0.628764 11.4724 
-229.031 93.3954 232.166 100.87 37.4558 94.8347 -159.095 -2.13747 107.536 -24.7767 24.7276 -4.30822 70.5005 10.3477 13.6736 44.3235 -1.35936 2.29071 -173.789 17.5453 103.477 -13.5227 -0.277594 -2.55892 50.6376 9.44467 18.232 28.1766 0.759154 3.70301 1.22985 7.57713 -91.3042 11.7363 1.83377 -2.79206 0.0634927 1.70914 -2.87 -22.4668 2.58793 -2.11216 -2.45415 2.58795 -2.11217 104.412 -53.5877 -78.8152 31.0333 -27.8967 5.76952 -0.924097 11.3329 -78.6459 -0.227201 -0.0156229 -1.91821 -84.8764 -50.8307 86.2941 -22.6134 25.7946 -6.15803 -13.6211 -12.6143 -61.5827 -3.27879 -0.0247809 -12.8867 5.50174 1.09451 -7.42742 -23.2785 0.566301 11.2569 
-223.108 92.5472 226.498 105.384 37.2117 90.2929 -157.562 -11.1505 108.08 -24.8766 25.4477 -3.41192 69.3066 9.98806 13.0365 50.0128 -0.654013 7.15763 -173.515 15.6589 102.142 -6.2202 8.66167 -4.70719 56.25 12.4204 28.2423 28.5434 0.411461 2.12161 1.27466 7.91545 -91.2271 11.0603 1.96845 -2.63109 -0.612013 1.85078 -2.71512 -23.1464 2.66802 -1.91804 -3.13372 2.66803 -1.91804 105.357 -53.7922 -77.4165 32.5325 -26.2226 6.60537 1.22248 11.0392 -79.6029 -2.32951 -0.0883851 -1.29026 -84.7141 -51.6011 86.6303 -21.9738 26.0763 -6.62884 -14.0161 -12.7839 -60.7944 -3.80793 0.0336557 -14.182 6.07806 0.693225 -7.72314 -24.1201 0.115284 11.5984 
-216.589 91.6086 220.225 106.938 37.822 88.2953 -160.492 -15.2329 106.237 -31.9681 24.5071 1.06208 65.0864 5.32571 7.65242 59.638 -0.988619 7.8314 -174.573 13.1553 101.193 -8.59419 -3.34887 -1.72264 45.2843 10.0701 14.6343 31.8578 -1.13037 -2.06739 1.09709 7.96481 -91.3355 10.9567 1.56606 -2.80551 -0.716521 1.44114 -2.87167 -23.2428 2.33664 -2.20552 -3.23017 2.33666 -2.20551 104.679 -53.812 -78.427 33.0459 -25.0793 7.2871 1.6485 10.7317 -79.5429 -3.85058 -0.168754 -0.0859143 -84.5854 -53.5289 87.0433 -23.7183 23.6903 -3.59664 -14.7097 -13.1274 -60.2445 -4.96336 0.124358 -13.8512 6.55111 1.41685 -6.08239 -24.5266 0.512 11.5067 
-210.335 91.2056 214.123 104.347 39.6116 89.9419 -165.883 -6.44436 104.671 -47.9018 16.1223 3.47572 51.5333 -4.39473 -1.67625 57.7913 -4.58956 -3.08554 -177.218 19.558 101.487 -27.1258 -7.6419 -0.77026 51.8625 8.1024 9.25311 25.7855 0.851168 1.07768 0.941044 7.6347 -91.5504 11.6107 1.1457 -3.209 -0.0637874 1.00342 -3.25624 -22.5787 2.05684 -2.71689 -2.56606 2.05684 -2.71689 103.997 -53.2925 -79.4246 32.6721 -25.1151 8.07924 1.23433 10.8195 -79.0116 -2.83734 -0.106731 -0.988358 -84.6282 -53.1093 86.933 -27.8606 21.9977 0.368362 -14.2189 -12.7667 -60.3722 -5.01675 0.157282 -15.0749 6.92564 1.40648 -6.34038 -24.1091 0.425882 12.5737 
-204.259 91.7426 208.626 101.247 42.3455 91.6218 -170.865 8.75113 102.29 -64.5793 11.2998 3.79364 50.6773 -1.66147 6.69039 51.9567 -1.553 4.26338 -179.635 19.522 101.145 -34.0584 -5.23944 0.0746318 59.8013 5.83074 9.36397 25.8505 1.1853 3.48872 0.997178 7.45944 -91.6004 11.9619 1.22843 -3.32488 0.28717 1.08099 -3.37565 -22.2267 2.17052 -2.80263 -2.21401 2.17051 -2.80262 103.716 -52.63 -79.8258 31.4634 -24.7701 7.23109 1.1885 10.8219 -79.8507 -1.93387 -0.0786848 -0.587651 -85.0166 -52.4158 86.2814 -27.1683 23.7888 -2.71067 -14.0809 -12.7429 -59.6407 -5.06572 0.147419 -14.4754 8.1471 -0.0543944 -7.43352 -22.2155 -0.320016 11.415 
-198.377 93.204 202.778 96.133 43.2054 92.7599 -171.97 22.0308 96.7776 -61.8475 8.59775 2.20582 55.1815 2.60548 9.75005 51.9983 -0.873458 6.82144 179.006 17.0479 98.3289 -33.672 -5.40638 0.228066 64.1721 4.92146 10.2775 26.024 1.38176 5.46207 1.13271 7.13004 -91.2669 12.6291 1.64539 -2.72648 0.956254 1.52384 -2.7962 -21.5723 2.38858 -2.10624 -1.55963 2.38858 -2.10624 102.936 -52.451 -81.0016 30.5956 -25.5275 6.16461 2.11794 11.0633 -79.5591 -2.37818 -0.085721 -1.1483 -84.8025 -52.1502 86.5653 -25.1846 24.6747 -5.42861 -12.8559 -12.1487 -59.9104 -5.15878 0.167334 -14.9202 7.38355 -0.790095 -7.05076 -21.3483 -0.766443 9.38342 
-192.677 94.3334 196.614 93.2924 43.6658 92.8288 -173.143 25.7936 92.6449 -40.7373 7.54075 0.480889 55.493 2.21552 8.69804 53.9788 -0.548753 8.34641 177.37 11.018 95.235 -30.0163 -3.32709 0.535382 69.4535 5.15804 15.4278 22.0065 2.03498 4.51956 1.07715 7.00176 -91.0219 12.8833 1.64908 -2.2419 1.21137 1.54884 -2.31226 -21.3228 2.24654 -1.64275 -1.31017 2.24652 -1.64276 102.193 -51.9322 -82.1266 29.9468 -27.3027 4.36824 2.69442 11.4259 -79.9617 -3.30422 -0.119568 -1.16445 -84.3036 -53.5592 87.4565 -23.7244 22.6251 -5.68045 -13.6137 -12.2278 -61.8539 -6.38234 0.256898 -14.2691 7.00166 -0.286586 -5.55308 -20.7887 -0.484131 8.92956 
